<svg xmlns="http://www.w3.org/2000/svg" xmlns:xlink="http://www.w3.org/1999/xlink" viewBox="0,0,256,256" width="20px" height="20px" fill-rule="nonzero"><g fill="#ffffff" fill-rule="nonzero" stroke="none" stroke-width="1" stroke-linecap="butt" stroke-linejoin="miter" stroke-miterlimit="10" stroke-dasharray="" stroke-dashoffset="0" font-family="none" font-weight="none" font-size="none" text-anchor="none" style="mix-blend-mode: normal"><g transform="scale(5.12,5.12)"><path d="M0,4v42h50v-42zM2,6h46v38h-46zM4,8v22.6875l13.3125,-12.40625c0.19531,-0.18359 0.45703,-0.30859 0.71875,-0.28125c0.26563,0.01172 0.53906,0.11719 0.71875,0.3125l10.28125,11.25l4.25,-4.28125c0.39063,-0.39062 1.04688,-0.39062 1.4375,0l11.28125,11.3125v-28.59375zM35,15c1.65625,0 3,1.34375 3,3c0,1.65625 -1.34375,3 -3,3c-1.65625,0 -3,-1.34375 -3,-3c0,-1.65625 1.34375,-3 3,-3zM17.9375,20.40625l-13.9375,13.03125v8.5625h42v-2.59375l-12,-12l-7.59375,7.59375h-2.8125l4.03125,-4.03125z"></path></g></g></svg>