<?xml version="1.0" standalone="no"?>
<!DOCTYPE svg PUBLIC "-//W3C//DTD SVG 20010904//EN"
 "http://www.w3.org/TR/2001/REC-SVG-20010904/DTD/svg10.dtd">
<svg version="1.0" xmlns="http://www.w3.org/2000/svg"
 width="1080.000000pt" height="1080.000000pt" viewBox="0 0 1080.000000 1080.000000"
 preserveAspectRatio="xMidYMid meet">

<g transform="translate(0.000000,1080.000000) scale(0.100000,-0.100000)"
fill="#000000" stroke="none">
<path d="M4885 9476 c-71 -31 -123 -129 -110 -207 8 -48 55 -113 97 -135 127
-66 296 74 259 214 -13 47 -60 106 -102 128 -35 17 -104 18 -144 0z"/>
<path d="M3885 9376 c-239 -48 -430 -213 -475 -412 -14 -60 -5 -169 20 -244
67 -198 206 -302 503 -374 138 -34 197 -56 246 -95 77 -61 103 -136 77 -225
-27 -92 -110 -157 -225 -175 -139 -22 -260 25 -403 156 -53 49 -62 53 -105 53
-60 0 -126 -30 -150 -66 -46 -71 -3 -213 95 -311 60 -59 177 -127 257 -148 83
-22 245 -35 313 -25 195 27 360 131 454 286 108 177 127 408 46 572 -67 135
-232 259 -398 297 -232 54 -277 67 -312 90 -108 71 -105 211 6 268 55 29 168
34 235 12 43 -14 60 -28 111 -91 74 -90 94 -104 143 -104 64 0 137 50 190 130
28 40 22 118 -11 171 -110 173 -390 280 -617 235z"/>
<path d="M6600 9043 c-88 -15 -201 -68 -278 -131 -31 -25 -48 -33 -57 -26 -74
53 -160 105 -205 125 -49 21 -69 24 -185 24 -126 0 -132 -1 -199 -33 -169 -79
-277 -211 -316 -389 -6 -26 -13 -247 -16 -502 -5 -451 -5 -457 16 -502 26 -55
63 -79 120 -79 51 0 97 21 136 61 l29 30 6 427 c7 480 10 510 67 571 48 50 99
71 177 71 77 0 138 -30 178 -86 41 -58 49 -167 45 -604 -3 -340 -2 -367 15
-395 49 -79 123 -91 211 -32 49 33 55 41 60 79 3 24 7 228 9 453 3 388 4 412
23 455 39 85 116 130 223 130 112 0 191 -54 222 -151 7 -21 13 -181 15 -424 2
-214 6 -414 9 -444 10 -93 69 -148 151 -138 44 5 115 51 134 88 6 11 11 206
13 506 2 535 2 534 -60 657 -85 168 -346 292 -543 259z"/>
<path d="M4882 8918 c-75 -36 -106 -108 -102 -233 2 -38 4 -284 5 -545 2 -501
2 -506 50 -557 21 -23 32 -27 77 -26 64 2 122 25 143 56 21 33 23 89 26 689 2
514 1 547 -16 576 -19 32 -77 62 -118 62 -12 -1 -41 -10 -65 -22z"/>
<path d="M174 8868 c-3 -18 -17 -49 -30 -68 -13 -19 -24 -43 -24 -52 0 -10 -4
-18 -9 -18 -5 0 -15 -16 -21 -35 -6 -19 -15 -35 -19 -35 -4 0 -15 -20 -25 -45
-11 -25 -25 -50 -33 -56 -11 -10 -13 -691 -13 -4148 l0 -4136 58 -62 c54 -59
146 -133 166 -133 5 0 19 -11 32 -25 13 -14 32 -25 44 -25 11 0 20 -7 20 -15
0 -13 475 -15 4214 -15 l4213 0 34 23 c19 12 57 36 84 52 28 16 59 35 70 42
11 7 27 15 35 19 8 4 17 10 20 14 3 3 23 17 45 30 50 29 115 90 115 107 0 7 6
13 14 13 7 0 16 9 19 19 2 11 22 29 43 40 45 23 31 26 -61 11 -192 -31 -316
-32 -3390 -31 -3367 1 -3758 4 -3935 27 -442 57 -820 243 -1135 559 -172 171
-277 338 -375 595 -60 156 -86 257 -106 408 -19 139 -19 225 -19 3427 0 3214
0 3271 13 3345 24 142 24 151 2 157 -11 3 -20 14 -20 24 0 31 -18 22 -26 -13z"/>
<path d="M2515 7159 c-393 -27 -831 -97 -1278 -205 -295 -71 -781 -203 -839
-227 -70 -29 -68 -20 -68 -312 l0 -264 26 -20 c14 -11 34 -23 45 -26 11 -4 16
-11 13 -17 -4 -7 -2 -8 4 -4 6 4 24 1 38 -7 17 -9 23 -17 15 -21 -6 -4 -11 -2
-11 3 0 6 -11 11 -25 11 -14 0 -25 -4 -25 -10 0 -5 4 -10 8 -10 14 0 32 -48
32 -85 0 -19 4 -36 9 -39 4 -3 11 -31 15 -63 4 -31 10 -61 15 -67 4 -6 15 -38
25 -71 9 -33 22 -68 27 -78 5 -10 7 -23 3 -28 -3 -6 -2 -21 4 -32 14 -30 29
-90 41 -164 25 -144 33 -190 42 -219 6 -17 11 -69 14 -115 2 -46 10 -120 19
-164 8 -44 20 -107 26 -140 6 -33 15 -69 20 -80 5 -11 18 -51 31 -90 12 -38
27 -77 33 -85 7 -8 18 -37 24 -64 7 -28 31 -77 52 -109 22 -33 40 -68 40 -78
0 -11 4 -19 9 -19 5 0 11 -8 15 -17 14 -42 65 -119 85 -128 12 -6 21 -19 21
-32 0 -13 11 -30 25 -39 14 -9 25 -23 25 -30 0 -19 175 -194 194 -194 8 0 18
-9 21 -21 4 -12 12 -18 21 -15 7 3 20 -1 28 -9 8 -8 19 -15 24 -15 5 0 12 -10
16 -23 4 -16 18 -28 46 -37 22 -7 40 -16 40 -20 0 -4 8 -11 18 -14 25 -9 64
-33 71 -43 7 -10 105 -58 141 -68 14 -4 28 -12 31 -17 3 -5 39 -18 80 -29 41
-10 83 -23 94 -28 78 -38 212 -55 440 -55 141 -1 230 4 300 16 102 17 306 68
315 79 3 4 32 15 64 25 50 16 55 20 35 25 -21 6 -20 7 9 8 17 1 32 5 32 10 0
6 17 12 38 14 l37 4 -37 1 c-59 3 -45 17 30 31 100 20 334 97 444 147 212 96
405 231 574 402 118 118 185 204 283 360 203 323 293 609 356 1132 17 133 52
271 83 318 15 23 94 82 109 82 4 0 0 -7 -11 -15 -17 -13 -17 -15 -3 -29 9 -9
20 -16 26 -16 6 0 10 -6 9 -12 -2 -10 21 -13 92 -13 52 0 101 -4 107 -8 7 -4
57 -7 110 -7 54 1 124 -3 156 -9 31 -5 80 -7 108 -4 41 5 53 2 72 -14 12 -12
44 -24 72 -28 27 -4 62 -13 77 -21 15 -8 34 -11 42 -8 20 8 75 -36 75 -60 1
-16 4 -17 13 -8 10 10 10 17 0 32 -6 11 -12 29 -12 39 0 11 -4 23 -10 26 -6 4
-4 15 6 30 19 29 12 75 -11 75 -8 0 -15 5 -15 10 0 6 4 10 8 10 14 0 38 -32
66 -87 22 -43 26 -66 26 -133 0 -44 -4 -80 -8 -80 -5 0 -12 -46 -15 -102 -4
-57 -11 -128 -16 -158 -17 -92 -20 -282 -6 -310 9 -18 10 -43 4 -90 -10 -79
-3 -212 15 -260 16 -43 36 -124 36 -148 0 -10 9 -25 19 -34 10 -9 22 -36 26
-60 7 -41 32 -107 45 -118 3 -3 18 -30 33 -60 15 -30 31 -62 36 -70 5 -8 16
-30 23 -47 7 -18 16 -33 20 -33 4 0 16 -19 26 -42 22 -48 56 -92 120 -154 23
-23 42 -48 42 -56 0 -8 8 -22 18 -30 9 -9 40 -39 68 -67 29 -28 56 -51 62 -51
6 0 17 -8 24 -17 11 -16 56 -49 157 -115 14 -10 47 -27 74 -39 26 -12 47 -25
47 -29 0 -4 12 -11 27 -15 15 -3 32 -13 37 -21 6 -8 56 -30 111 -49 55 -19
107 -38 115 -42 8 -3 35 -13 60 -20 25 -8 61 -19 80 -24 151 -46 532 -42 730
8 36 9 69 20 75 25 5 4 19 8 31 8 28 0 42 19 23 31 -10 6 -6 9 13 9 24 0 64
12 133 40 11 4 68 15 127 24 166 26 391 96 547 171 285 138 543 359 721 621
218 320 328 646 385 1141 24 210 38 257 104 340 53 67 144 136 255 194 l91 46
3 253 c2 224 0 255 -14 271 -23 26 -146 71 -347 129 -935 266 -1468 362 -2007
363 -419 0 -732 -49 -1112 -173 -241 -79 -572 -263 -768 -428 -47 -40 -93 -72
-103 -72 -10 0 -39 11 -65 24 -69 35 -140 53 -282 73 -172 23 -680 23 -858 -1
-108 -14 -234 -50 -266 -75 -6 -4 -23 -11 -38 -15 -22 -5 -37 2 -85 40 -32 26
-78 66 -103 89 -245 230 -659 411 -1120 489 -255 43 -604 62 -845 45z m5762
-319 c302 -18 480 -53 710 -139 282 -104 518 -292 651 -518 159 -270 194 -792
78 -1179 -81 -273 -221 -500 -429 -700 -184 -178 -350 -278 -605 -365 -333
-113 -813 -114 -1157 -2 -185 60 -380 164 -540 288 -237 184 -464 518 -571
839 -98 295 -104 621 -18 897 57 184 133 311 264 440 334 330 898 483 1617
439z m-5037 -25 c154 -21 269 -49 425 -102 582 -199 837 -548 838 -1148 1
-243 -35 -440 -117 -647 -109 -275 -284 -513 -515 -699 -214 -172 -548 -309
-856 -351 -145 -20 -448 -14 -589 11 -450 80 -855 356 -1090 743 -110 181
-184 371 -228 583 -19 94 -23 141 -23 320 0 274 27 413 116 603 79 167 196
296 373 414 249 164 513 245 946 288 130 13 586 4 720 -15z m-2259 -346 c5
-11 7 -24 4 -29 -4 -6 -76 -10 -176 -10 -142 0 -171 2 -175 15 -4 8 -1 22 6
30 11 13 41 15 172 14 145 -1 159 -2 169 -20z m9219 -9 l0 -30 -169 0 c-94 0
-172 4 -175 8 -3 5 -2 18 1 30 5 21 9 22 174 22 l169 0 0 -30z m-9685 -410 c3
-5 1 -10 -4 -10 -6 0 -11 5 -11 10 0 6 2 10 4 10 3 0 8 -4 11 -10z m7668
-2467 c-13 -2 -33 -2 -45 0 -13 2 -3 4 22 4 25 0 35 -2 23 -4z"/>
<path d="M5965 5943 c7 -24 -9 -33 -18 -10 -4 9 -6 9 -6 0 -1 -6 4 -15 9 -18
6 -3 10 -14 10 -25 0 -10 7 -20 15 -24 13 -4 14 2 9 37 -4 23 -11 47 -16 52
-7 7 -8 2 -3 -12z"/>
<path d="M870 974 c1 -11 19 -34 43 -53 26 -20 21 -9 -13 29 -16 18 -30 29
-30 24z"/>
<path d="M955 890 c10 -11 23 -20 28 -20 6 0 2 9 -8 20 -10 11 -23 20 -28 20
-6 0 -2 -9 8 -20z"/>
<path d="M1005 850 c3 -5 8 -10 11 -10 2 0 4 5 4 10 0 6 -5 10 -11 10 -5 0 -7
-4 -4 -10z"/>
<path d="M1060 820 c-9 -6 -10 -10 -3 -10 6 0 15 5 18 10 8 12 4 12 -15 0z"/>
<path d="M1090 800 c-9 -6 -10 -10 -3 -10 6 0 15 5 18 10 8 12 4 12 -15 0z"/>
<path d="M1120 780 c20 -13 33 -13 25 0 -3 6 -14 10 -23 10 -15 0 -15 -2 -2
-10z"/>
<path d="M1588 563 c7 -3 16 -2 19 1 4 3 -2 6 -13 5 -11 0 -14 -3 -6 -6z"/>
<path d="M2288 473 c7 -3 16 -2 19 1 4 3 -2 6 -13 5 -11 0 -14 -3 -6 -6z"/>
<path d="M2473 463 c9 -2 23 -2 30 0 6 3 -1 5 -18 5 -16 0 -22 -2 -12 -5z"/>
</g>
</svg>
