<?xml version="1.0" standalone="no"?>
<!DOCTYPE svg PUBLIC "-//W3C//DTD SVG 20010904//EN"
 "http://www.w3.org/TR/2001/REC-SVG-20010904/DTD/svg10.dtd">
<svg version="1.0" xmlns="http://www.w3.org/2000/svg"
 width="1080.000000pt" height="1080.000000pt" viewBox="0 0 1080.000000 1080.000000"
 preserveAspectRatio="xMidYMid meet">

<g transform="translate(0.000000,1080.000000) scale(0.100000,-0.100000)"
fill="#000000" stroke="none">
<path d="M127 9577 c-21 -57 -53 -192 -71 -302 -26 -161 -36 -651 -47 -2290
-13 -2057 3 -4709 31 -5197 13 -226 61 -421 155 -638 131 -303 365 -578 651
-766 268 -176 554 -268 919 -294 275 -20 1616 -28 4100 -24 2471 3 3098 11
3320 38 326 41 656 177 870 361 l30 26 -40 -6 c-22 -3 -57 -10 -78 -16 -21 -5
-52 -12 -70 -14 -18 -2 -50 -7 -72 -10 -57 -9 -456 -17 -474 -9 -9 3 -59 7
-111 9 -134 4 -302 15 -322 21 -10 3 -55 7 -102 8 -46 2 -89 7 -95 10 -6 4
-34 7 -63 7 -57 0 -232 8 -313 15 -27 2 -106 6 -175 9 -69 3 -163 7 -210 9
-150 7 -410 16 -600 21 -423 12 -538 15 -790 20 -146 3 -373 7 -505 10 -132 3
-397 7 -590 10 -192 3 -444 7 -560 10 -115 2 -347 7 -515 10 -168 3 -393 8
-500 10 -107 3 -289 7 -405 10 -115 2 -264 7 -330 10 -66 3 -190 7 -275 10
-85 3 -186 7 -225 10 -38 2 -110 7 -160 10 -136 8 -247 16 -280 20 -16 2 -68
7 -114 10 -47 3 -88 8 -91 10 -4 3 -34 7 -66 10 -32 3 -70 8 -84 12 -14 3 -34
7 -45 8 -66 9 -308 75 -332 91 -13 8 -23 12 -23 10 0 -8 -157 61 -222 97 -32
17 -58 35 -58 40 0 4 -4 6 -9 3 -4 -3 -19 3 -31 14 -13 11 -28 20 -33 20 -6 0
-17 7 -26 15 -9 8 -38 34 -66 58 -27 23 -59 52 -72 63 -12 12 -24 19 -27 16
-3 -3 -6 0 -6 6 0 6 -13 23 -28 39 -15 15 -41 46 -57 68 -28 37 -46 58 -80 96
-8 9 -15 19 -15 23 0 4 -7 14 -15 22 -8 9 -18 27 -22 42 -3 15 -9 29 -13 32
-16 11 -97 198 -114 260 -9 36 -21 74 -26 85 -9 21 -32 128 -33 158 -1 9 -5
17 -9 17 -4 0 -5 6 -2 13 2 7 -2 30 -11 50 -17 41 -19 50 -7 43 5 -3 6 8 4 25
-2 16 -7 29 -11 29 -4 0 -6 24 -5 52 1 29 -2 66 -7 82 -5 16 -11 63 -14 105
-3 42 -7 90 -10 106 -2 17 -7 90 -9 163 -3 73 -8 136 -10 141 -3 5 -8 85 -11
177 -3 93 -8 216 -10 274 -6 115 -11 277 -20 555 -12 418 -17 610 -30 1335 -3
162 -7 405 -10 540 -3 135 -8 362 -10 505 -10 538 -16 774 -20 895 -3 69 -6
179 -8 245 -7 220 -21 601 -31 815 -16 346 -19 398 -21 425 -6 63 -14 157 -19
227 -4 40 -9 102 -12 138 -3 36 -9 97 -14 135 -5 39 -12 99 -15 135 -3 36 -10
92 -15 125 -10 71 -25 235 -22 252 2 6 -2 14 -6 17 -5 3 -16 -13 -25 -37z"/>
<path d="M6463 8493 c-7 -15 -13 -33 -13 -40 0 -7 -5 -13 -11 -13 -6 0 -9 -6
-6 -14 3 -8 -14 -35 -38 -62 -25 -27 -47 -58 -51 -69 -4 -11 -17 -30 -30 -42
-13 -12 -24 -27 -24 -33 0 -6 -4 -8 -10 -5 -5 3 -15 -7 -22 -22 -7 -15 -18
-32 -25 -36 -7 -4 -13 -14 -13 -22 0 -8 -6 -18 -14 -22 -8 -4 -15 -12 -16 -18
-2 -9 -38 -57 -66 -89 -6 -6 -19 -26 -27 -43 -9 -17 -24 -33 -33 -37 -9 -4
-14 -9 -11 -12 2 -3 -6 -16 -19 -29 -13 -13 -24 -30 -24 -38 0 -8 -7 -20 -15
-27 -8 -7 -15 -20 -15 -30 0 -10 -7 -23 -15 -30 -13 -11 -65 -96 -104 -169 -8
-14 -18 -27 -23 -29 -4 -2 -8 -10 -8 -17 0 -7 -5 -15 -10 -17 -6 -2 -15 -31
-21 -65 -6 -35 -15 -61 -19 -58 -5 3 -9 -3 -9 -12 0 -41 -12 -118 -20 -123 -4
-3 -8 -12 -9 -20 -1 -34 -9 -77 -16 -88 -4 -7 -9 -22 -11 -35 -9 -49 -37 -255
-41 -302 -10 -107 -16 -134 -42 -185 -17 -33 -40 -59 -62 -72 l-35 -20 -57 22
c-48 17 -70 35 -125 98 -38 41 -92 99 -120 129 -29 29 -53 57 -53 63 0 5 -4
10 -8 10 -4 0 -26 18 -49 39 -22 22 -43 38 -45 35 -3 -2 -13 5 -23 16 -10 11
-27 20 -37 20 -11 0 -16 5 -13 10 5 9 0 11 -21 9 -4 0 -12 10 -18 23 -6 13
-20 23 -31 23 -10 0 -20 6 -23 13 -2 6 -9 12 -16 12 -7 0 -18 6 -24 13 -7 6
-18 12 -25 12 -7 1 -11 6 -10 13 2 6 -4 9 -13 5 -9 -3 -14 0 -12 8 2 9 -6 14
-24 13 -15 -1 -25 2 -23 6 8 13 -17 27 -85 50 -36 12 -69 23 -75 25 -5 1 -17
4 -25 7 -8 3 -33 11 -55 18 -22 7 -56 19 -75 27 -19 8 -44 19 -55 24 -11 4
-39 13 -62 20 -24 7 -43 16 -43 21 0 4 -9 8 -21 8 -11 0 -80 18 -152 39 -148
44 -199 57 -273 66 -50 7 -51 6 -58 -20 -5 -21 -2 -33 14 -50 11 -12 20 -28
18 -35 -3 -14 37 -40 237 -150 275 -151 921 -479 1085 -550 138 -60 420 -199
420 -206 0 -4 -6 -15 -14 -23 -8 -9 -42 -70 -77 -136 -34 -65 -70 -128 -81
-139 -10 -11 -18 -23 -18 -27 0 -4 -16 -25 -35 -46 -19 -21 -35 -44 -35 -50 0
-7 -5 -13 -10 -13 -6 0 -9 -4 -8 -8 5 -15 -59 -105 -121 -172 -34 -35 -68 -80
-77 -99 -9 -19 -34 -51 -55 -70 -22 -19 -39 -39 -39 -45 0 -6 -21 -33 -45 -61
-25 -27 -51 -62 -58 -77 -6 -16 -15 -28 -19 -28 -3 0 -23 -23 -43 -50 -20 -28
-40 -48 -44 -45 -5 2 -14 -8 -20 -23 -7 -15 -12 -27 -10 -27 4 0 -29 -41 -54
-67 -9 -10 -32 -42 -49 -71 -17 -28 -38 -60 -46 -69 -8 -10 -11 -18 -7 -18 4
0 -3 -10 -17 -22 -13 -13 -32 -36 -42 -53 -22 -35 -31 -46 -126 -142 -39 -40
-75 -73 -81 -73 -10 0 -22 -8 -57 -40 -19 -16 -120 -60 -140 -60 -6 0 -12 -5
-12 -11 0 -6 -5 -9 -12 -7 -7 3 -35 -1 -63 -7 -52 -12 -315 -13 -352 -1 -12 4
-25 1 -31 -7 -25 -30 122 -159 243 -212 63 -28 196 -55 271 -55 65 0 67 -7 19
-74 -19 -27 -35 -53 -35 -57 0 -5 33 7 73 26 79 38 243 85 294 85 38 0 53 -21
53 -77 -1 -67 -33 -116 -162 -245 -68 -68 -141 -137 -163 -153 -21 -17 -48
-38 -58 -48 -10 -10 -55 -42 -100 -71 -263 -170 -546 -256 -841 -257 -147 0
-217 5 -301 22 -27 5 -66 12 -85 15 -19 3 -57 11 -85 19 -82 22 -395 83 -465
90 -127 12 -145 15 -179 25 -19 5 -36 8 -37 7 -6 -6 28 -63 53 -89 34 -35 55
-42 443 -138 339 -85 459 -107 601 -114 183 -8 444 30 614 91 116 41 304 139
405 211 122 87 298 261 389 385 40 54 75 105 78 113 10 27 30 14 66 -45 75
-120 198 -221 330 -268 64 -24 87 -26 202 -26 114 0 139 3 203 26 169 59 286
163 372 328 104 202 161 267 284 327 82 40 147 54 249 53 83 -1 205 -34 256
-70 32 -22 97 -53 176 -83 50 -19 79 -23 180 -23 131 0 183 10 285 58 239 111
388 380 350 632 -12 79 -34 145 -49 145 -4 0 -13 -29 -19 -65 -8 -50 -19 -75
-46 -108 -20 -24 -36 -49 -36 -54 0 -6 -7 -13 -15 -17 -8 -3 -15 -11 -15 -17
0 -11 -14 -25 -76 -79 -73 -63 -201 -127 -298 -150 -112 -26 -211 -20 -346 22
-36 11 -74 22 -85 24 -11 2 -45 11 -75 20 -81 24 -292 25 -390 0 -108 -26
-243 -87 -312 -139 -49 -37 -152 -140 -183 -182 -78 -107 -225 -265 -245 -265
-4 0 -10 -4 -12 -9 -5 -13 -175 -102 -200 -105 -13 -2 -55 -9 -94 -16 -47 -8
-100 -10 -157 -5 -122 10 -159 40 -267 219 -22 37 -25 51 -24 146 1 138 9 159
250 648 107 216 194 394 194 396 0 2 38 83 85 180 47 97 85 178 85 180 0 3 52
112 116 243 64 131 127 263 140 293 15 36 29 56 42 58 13 2 19 11 19 30 1 30
34 93 245 462 170 298 288 519 421 790 129 263 248 522 242 528 -2 3 -12 -1
-21 -9 -16 -13 -17 -12 -10 11 4 14 10 44 13 68 5 37 3 44 -13 48 -17 4 -19
14 -16 89 4 88 -4 104 -25 58z"/>
<path d="M7617 8000 c-9 -22 -17 -47 -17 -55 0 -8 -4 -15 -10 -15 -5 0 -19
-23 -31 -50 -12 -28 -27 -54 -34 -58 -36 -21 -180 -304 -191 -377 -10 -60 -4
-180 10 -203 4 -6 5 -16 2 -21 -6 -9 39 -82 79 -129 11 -13 28 -33 38 -44 9
-12 17 -18 17 -13 0 4 7 1 17 -6 15 -13 15 -10 7 41 -5 30 -9 102 -9 160 0
117 6 137 86 300 72 148 98 249 93 356 -3 56 -24 154 -33 154 -4 0 -14 -18
-24 -40z"/>
<path d="M5138 7750 c-85 -45 -122 -105 -121 -195 0 -64 5 -98 17 -130 23 -59
63 -130 93 -164 18 -22 33 -44 33 -49 0 -6 3 -12 8 -14 11 -5 67 -92 64 -100
-1 -5 2 -8 7 -8 5 0 29 -35 52 -77 23 -43 53 -88 66 -100 13 -12 23 -29 23
-38 0 -8 4 -15 8 -15 5 0 21 -23 36 -51 26 -47 50 -69 62 -56 3 3 -9 55 -26
117 -17 61 -30 116 -28 122 5 14 68 -126 68 -151 0 -10 7 -24 15 -31 21 -17
20 3 -4 115 -11 50 -27 144 -36 210 -8 66 -20 144 -26 173 -6 30 -11 98 -11
151 -1 110 -15 165 -60 228 -54 75 -163 103 -240 63z"/>
<path d="M6510 6984 c-25 -8 -63 -23 -85 -33 -22 -10 -51 -22 -64 -26 -34 -10
-91 -45 -91 -56 0 -5 -5 -9 -11 -9 -6 0 -30 -13 -54 -30 -24 -16 -48 -30 -53
-30 -13 0 -218 -126 -263 -162 -28 -23 -39 -39 -39 -59 0 -30 26 -63 44 -56 6
2 166 43 356 91 516 130 536 139 534 243 -2 72 -16 95 -70 121 -52 26 -134 28
-204 6z"/>
<path d="M4877 6413 c-1 -1 -39 -3 -83 -4 -156 -4 -313 -39 -360 -81 -11 -10
-24 -18 -28 -18 -10 0 -54 -50 -72 -83 -16 -29 -14 -74 5 -138 9 -29 20 -40
49 -52 75 -30 134 -24 282 30 52 19 216 78 364 129 149 52 276 100 283 106 8
6 13 25 11 42 -3 27 -7 31 -36 34 -24 2 -32 8 -30 20 3 15 -15 17 -190 17
-107 0 -194 -1 -195 -2z"/>
<path d="M5663 6400 c14 -11 114 -68 223 -126 110 -58 246 -132 304 -164 58
-32 150 -81 205 -110 88 -46 183 -97 450 -240 39 -20 162 -86 274 -145 209
-110 256 -139 326 -203 23 -20 51 -46 64 -57 l24 -20 -19 35 c-10 19 -45 61
-76 94 -32 33 -56 61 -54 64 2 2 21 -1 42 -6 70 -18 148 -22 229 -13 344 41
580 301 576 636 -1 96 -19 165 -43 165 -11 0 -17 -4 -14 -9 3 -5 -3 -20 -14
-34 -11 -14 -20 -30 -20 -36 0 -16 -63 -111 -98 -149 -16 -17 -28 -32 -25 -32
13 0 -104 -88 -148 -111 -27 -14 -46 -29 -42 -32 3 -4 -3 -7 -14 -7 -11 0 -30
-9 -42 -19 -13 -11 -29 -17 -36 -15 -7 3 -24 -2 -37 -10 -14 -9 -27 -13 -30
-10 -4 3 -17 -2 -30 -10 -35 -23 -202 -23 -316 -2 -23 5 -45 13 -48 17 -3 5
-10 7 -15 3 -5 -3 -15 -1 -22 5 -7 5 -25 12 -40 15 -15 2 -31 7 -37 11 -6 4
-22 8 -36 11 -14 3 -49 16 -77 30 -29 13 -65 27 -81 30 -16 3 -34 8 -40 11 -5
4 -20 8 -32 9 -12 1 -42 12 -66 23 -25 11 -58 23 -75 25 -16 3 -42 12 -59 20
-16 8 -40 17 -54 19 -14 2 -32 6 -40 9 -106 37 -179 60 -195 62 -11 2 -29 8
-40 14 -17 9 -39 18 -65 27 -3 1 -16 6 -30 12 -14 6 -45 18 -70 26 -111 38
-248 90 -285 107 -22 10 -80 36 -129 59 -49 23 -102 41 -119 41 l-30 0 26 -20z"/>
<path d="M3086 6371 c49 -83 123 -140 301 -230 46 -23 89 -48 96 -54 7 -7 42
-39 77 -72 34 -33 60 -54 56 -47 -4 6 -2 12 4 12 7 0 10 7 7 15 -4 8 -2 17 3
20 26 16 -49 159 -103 197 -18 12 -34 26 -38 30 -8 12 -127 68 -144 68 -8 0
-15 5 -15 10 0 6 -11 10 -24 10 -12 0 -36 4 -52 9 -16 5 -56 16 -89 26 -33 10
-68 22 -78 27 -18 9 -18 8 -1 -21z"/>
<path d="M5640 6170 c-25 -25 -25 -41 1 -91 20 -40 35 -90 88 -299 15 -58 39
-132 54 -165 14 -33 29 -71 33 -85 6 -23 33 -86 72 -169 8 -19 24 -36 34 -39
10 -2 18 -11 18 -20 0 -10 3 -13 10 -6 6 6 -3 43 -26 104 -19 52 -53 145 -74
205 -21 61 -57 160 -80 220 -62 165 -72 210 -42 191 5 -3 57 -151 116 -330 59
-178 114 -332 122 -342 14 -17 14 -14 9 34 -11 105 -40 193 -145 437 -43 100
-80 211 -100 295 -7 30 -17 61 -23 68 -14 18 -44 15 -67 -8z"/>
<path d="M4946 3300 c-120 -36 -181 -172 -123 -275 89 -157 340 -128 387 45
38 141 -114 274 -264 230z"/>
<path d="M3904 2799 c-148 -19 -249 -65 -326 -147 -65 -70 -88 -133 -88 -236
0 -92 21 -153 72 -211 75 -86 155 -118 395 -161 82 -14 162 -32 178 -39 94
-39 85 -118 -16 -145 -92 -25 -198 11 -229 77 l-15 33 -207 0 c-238 0 -225 7
-189 -94 70 -199 272 -307 571 -307 268 -1 460 91 543 260 28 58 32 75 32 151
0 73 -4 92 -27 135 -62 118 -151 161 -443 215 -185 34 -232 51 -246 87 -22 59
35 103 136 103 76 0 127 -27 152 -79 l18 -40 193 -1 194 0 -7 43 c-33 199
-186 323 -438 357 -88 11 -163 11 -253 -1z"/>
<path d="M6113 2800 c-97 -20 -193 -94 -241 -185 l-27 -50 -3 113 -3 112 -199
0 -200 0 0 -600 0 -600 210 0 210 0 0 366 c0 403 3 427 57 474 71 63 178 44
221 -40 22 -44 22 -50 22 -422 l0 -378 205 0 205 0 0 383 c0 344 2 385 18 416
27 54 64 75 127 75 62 0 98 -20 130 -75 19 -32 20 -55 23 -416 l3 -383 210 0
209 0 0 413 c0 230 -5 441 -10 477 -28 175 -139 289 -313 321 -167 31 -371
-65 -419 -197 -7 -19 -15 -34 -18 -34 -4 0 -12 18 -19 39 -17 58 -90 133 -159
164 -65 30 -171 42 -239 27z"/>
<path d="M4800 2190 l0 -600 210 0 210 0 0 600 0 600 -210 0 -210 0 0 -600z"/>
</g>
</svg>
