<?xml version="1.0" encoding="UTF-8"?>
<svg version="1.1" xmlns="http://www.w3.org/2000/svg" width="100" height="100">
<path d="M0 0 C0.77123199 -0.00671722 1.54246399 -0.01343445 2.33706665 -0.02035522 C4.88379377 -0.03933563 7.43025735 -0.04325943 9.97705078 -0.04541016 C11.75058093 -0.0518381 13.52411002 -0.05856646 15.29763794 -0.06558228 C19.01485655 -0.07755516 22.73198222 -0.08126309 26.44921875 -0.08007812 C31.20629531 -0.07987494 35.9627744 -0.10717596 40.7197094 -0.14162254 C44.38293175 -0.16388904 48.04601027 -0.16791574 51.70929337 -0.16685867 C53.46273991 -0.16921505 55.21619039 -0.17804069 56.96957016 -0.19352341 C59.42544829 -0.21317865 61.88003743 -0.20734794 64.3359375 -0.1953125 C65.05614075 -0.20655151 65.77634399 -0.21779053 66.51837158 -0.22937012 C71.59600222 -0.16632076 74.48496969 0.95637904 78.29736328 4.29052734 C81.96506875 8.87540322 82.88398203 13.21150999 82.81494141 19.04248047 C82.82195068 19.78328354 82.82895996 20.52408661 82.83618164 21.28733826 C82.8536675 23.71587538 82.84217345 26.1432301 82.82861328 28.57177734 C82.83131092 30.27136456 82.83519561 31.97095027 82.84020996 33.67053223 C82.84609224 37.22451539 82.83758338 40.77809515 82.81884766 44.33203125 C82.79605858 48.87489181 82.80918853 53.41680695 82.83313751 57.95963287 C82.84763009 61.46680757 82.84297373 64.97376018 82.83262634 68.48094177 C82.8299686 70.15539158 82.83319514 71.82986191 82.84254456 73.50428772 C82.8527678 75.84958885 82.83713095 78.19338449 82.81494141 80.53857422 C82.82303833 81.22241684 82.83113525 81.90625946 82.83947754 82.61082458 C82.73495494 88.61009535 80.68960846 92.56333178 76.75878906 97.04452515 C69.78111081 101.90006847 61.30721298 101.01243921 53.17236328 100.95458984 C51.49901986 100.95796319 49.82567884 100.96282012 48.15234375 100.96908569 C44.65552301 100.97643267 41.15934349 100.96582257 37.66259766 100.94238281 C33.19702101 100.91389558 28.73294714 100.93031138 24.26742554 100.96024513 C20.81507192 100.97837756 17.36307022 100.97253308 13.91070557 100.95960617 C12.26499246 100.95628853 10.61924662 100.96030105 8.97357178 100.97200394 C-6.43322597 101.05754201 -6.43322597 101.05754201 -12.1640625 96.9468689 C-16.71478559 92.04781908 -18.29848002 88.10041413 -18.25195312 81.484375 C-18.26217499 80.72581711 -18.27239685 79.96725922 -18.28292847 79.18571472 C-18.31060476 76.69168047 -18.30881629 74.19875889 -18.30419922 71.70458984 C-18.3119801 69.96112665 -18.32065088 68.21766722 -18.33016968 66.47421265 C-18.34506943 62.82431741 -18.34453039 59.17480916 -18.33398438 55.52490234 C-18.32240274 50.86187304 -18.35624494 46.20043463 -18.40267372 41.53766823 C-18.43223019 37.93778318 -18.43388093 34.3382776 -18.42765427 30.73829269 C-18.4286768 29.01998114 -18.43907932 27.30164726 -18.45927811 25.58345413 C-18.62597958 9.41929149 -18.62597958 9.41929149 -13.38021851 3.60824585 C-9.07573713 0.22713215 -5.36509872 -0.00671421 0 0 Z " fill="#FBB4CB" transform="translate(17.70263671875,-0.29052734375)"/>
<path d="M0 0 C2.375 0.5 2.375 0.5 5.375 2.5 C5.5625 5.125 5.5625 5.125 5.375 7.5 C6.365 6.84 7.355 6.18 8.375 5.5 C13.81944444 5.94444444 13.81944444 5.94444444 16.375 8.5 C16.38928045 10.45927838 16.31418365 12.41976934 16.1875 14.375 C16.05238667 17.58737676 16.05238667 17.58737676 16.375 20.5 C18.75342577 22.90406384 18.75342577 22.90406384 21.375 24.5 C21.875 27.5625 21.875 27.5625 21.375 30.5 C19.52157225 33.05949546 18.43743607 33.47918798 15.375 34.5 C15.705 34.83 16.035 35.16 16.375 35.5 C16.125 38.9375 16.125 38.9375 15.375 42.5 C11.86497177 44.84001882 11.37403294 44.5524498 7.4375 43.8125 C4.7984962 43.40790947 4.7984962 43.40790947 2.375 43.5 C0.13308599 45.82321702 0.13308599 45.82321702 -1.625 48.5 C-5.1875 49.4375 -5.1875 49.4375 -8.625 49.5 C-9.615 48.84 -10.605 48.18 -11.625 47.5 C-12.553125 48.304375 -13.48125 49.10875 -14.4375 49.9375 C-18.26411465 53.25389936 -21.48667826 53.71477192 -26.55078125 53.66796875 C-29.43655938 53.4342805 -31.94951522 52.57019391 -34.625 51.5 C-34.625 50.18 -34.625 48.86 -34.625 47.5 C-33.17867187 47.53480469 -33.17867187 47.53480469 -31.703125 47.5703125 C-29.80820312 47.59738281 -29.80820312 47.59738281 -27.875 47.625 C-26.62203125 47.64820313 -25.3690625 47.67140625 -24.078125 47.6953125 C-20.88539184 47.51472805 -19.21468064 47.29769093 -16.625 45.5 C-16.295 44.84 -15.965 44.18 -15.625 43.5 C-16.429375 43.355625 -17.23375 43.21125 -18.0625 43.0625 C-20.625 42.5 -20.625 42.5 -21.625 41.5 C-21.53970801 39.5824007 -21.431653 37.6657934 -21.3125 35.75 C-21.11161905 31.44726564 -21.11161905 31.44726564 -22.95703125 27.76953125 C-24.49603307 26.65582735 -26.05956693 25.57623524 -27.625 24.5 C-28.1875 21.875 -28.1875 21.875 -27.625 19.5 C-25.6908223 16.79215122 -23.85560419 16.05700072 -20.625 15.5 C-20.955 15.17 -21.285 14.84 -21.625 14.5 C-22.08375252 9.22434608 -22.08375252 9.22434608 -20.4375 6.625 C-18.03909825 5.13633684 -16.39693929 5.20821692 -13.625 5.5 C-13.295 5.83 -12.965 6.16 -12.625 6.5 C-10.29671371 7.08610371 -10.29671371 7.08610371 -7.625 6.5 C-6.8 5.51 -5.975 4.52 -5.125 3.5 C-2.625 0.5 -2.625 0.5 0 0 Z " fill="#179F53" transform="translate(54.625,15.5)"/>
<path d="M0 0 C0.66 0.33 1.32 0.66 2 1 C1.67 1.66 1.34 2.32 1 3 C0.34 3 -0.32 3 -1 3 C-0.75869882 10.73845177 -0.51532584 18.47683561 -0.26950932 26.21514511 C-0.15535255 29.81071832 -0.0418353 33.40630903 0.07006836 37.00195312 C0.56870612 53.00910245 1.10505782 69.00908161 2 85 C10.79289071 88.05847618 10.79289071 88.05847618 19.9296875 87.4921875 C25.77996251 86.1013674 32.25423535 87.07489404 38.1875 87.5 C45.86251209 88.04814879 53.50607086 88.0662932 61.19799805 87.96289062 C66.88569821 87.90886553 72.36114464 88.28613225 78 89 C81.39850492 89.31761728 84.61902763 89.54826579 88 89 C90.94373354 86.35063981 92.26810201 83.49365629 94 80 C93.88754823 84.6002998 93.74323648 88.65521909 90.8125 92.375 C85.68067878 97.16469981 81.42353314 98.37531878 74.46923828 98.41992188 C73.7399411 98.42839142 73.01064392 98.43686096 72.25924683 98.44558716 C69.86275502 98.46887089 67.46690858 98.46998137 65.0703125 98.46875 C63.3941116 98.47585723 61.71791312 98.48355705 60.04171753 98.49182129 C56.53311395 98.50524658 53.02473531 98.50684389 49.51611328 98.50097656 C45.03487282 98.49508474 40.55471737 98.52565885 36.0736866 98.56609344 C32.61280573 98.59203014 29.15218398 98.59484244 25.69121933 98.59120178 C24.03989818 98.59288771 22.38856437 98.60247928 20.73733902 98.62034607 C5.25087375 98.76947403 5.25087375 98.76947403 -0.46389771 94.65881348 C-5.00710908 89.7526687 -6.59585987 85.81224247 -6.54931641 79.19384766 C-6.55953827 78.43528976 -6.56976013 77.67673187 -6.58029175 76.89518738 C-6.60796804 74.40115313 -6.60617957 71.90823155 -6.6015625 69.4140625 C-6.60934338 67.6705993 -6.61801416 65.92713988 -6.62753296 64.1836853 C-6.64243272 60.53379007 -6.64189367 56.88428182 -6.63134766 53.234375 C-6.61976602 48.5713457 -6.65360822 43.90990728 -6.700037 39.24714088 C-6.72959347 35.64725583 -6.73124421 32.04775026 -6.72501755 28.44776535 C-6.72604008 26.7294538 -6.7364426 25.01111992 -6.75664139 23.29292679 C-6.92386784 7.07786004 -6.92386784 7.07786004 -1.28695679 1.12240601 C-0.64991318 0.56681503 -0.64991318 0.56681503 0 0 Z " fill="#C56A8A" transform="translate(6,2)"/>
<path d="M0 0 C0.33 0 0.66 0 1 0 C1.85534088 5.37284771 2.28399573 10.67677137 2.53515625 16.109375 C2.57689468 16.97673279 2.61863312 17.84409058 2.66163635 18.73773193 C2.94871364 25.03739514 3.1260306 31.335748 3.24609375 37.640625 C3.26282135 38.51513306 3.27954895 39.38964111 3.29678345 40.29064941 C3.36252731 43.85303978 3.42547467 47.4153973 3.47680664 50.97802734 C3.51664008 53.63661098 3.56802428 56.29477702 3.62109375 58.953125 C3.6295079 59.74591858 3.63792206 60.53871216 3.64659119 61.35552979 C3.81570683 69.03486391 4.92553452 75.91064142 10 82 C15.61174163 85.10122564 22.10497478 85.129299 28.38232422 85.20532227 C29.09521103 85.21522186 29.80809784 85.22512146 30.54258728 85.23532104 C32.87992118 85.26670405 35.21727534 85.29160085 37.5546875 85.31640625 C39.18279525 85.33699586 40.81089789 85.35799284 42.43899536 85.37937927 C46.7099594 85.43439277 50.98097001 85.48389283 55.25201416 85.53222656 C59.61596793 85.58259354 63.97985464 85.63820004 68.34375 85.69335938 C76.89577651 85.80068723 85.44785938 85.9021878 94 86 C89.41924498 89.51191219 86.63486986 90.15765482 80.92333984 90.19287109 C80.19462677 90.20104858 79.4659137 90.20922607 78.71511841 90.21765137 C76.29706645 90.24251459 73.87907344 90.25902772 71.4609375 90.2734375 C70.63428211 90.27876118 69.80762672 90.28408485 68.95592117 90.28956985 C64.57658058 90.31631128 60.19726852 90.33567902 55.81787109 90.35009766 C52.19977407 90.36341441 48.58224406 90.39122293 44.96435547 90.43212891 C40.59181305 90.48156723 36.21978338 90.50623301 31.84697342 90.51332474 C30.18445874 90.52002023 28.52195473 90.5351979 26.85960007 90.55921555 C11.22352728 90.7721515 11.22352728 90.7721515 5.53115845 86.6612854 C0.94161104 81.68169096 -0.58849868 77.76882131 -0.45410156 71.06689453 C-0.45468567 70.2954863 -0.45526978 69.52407806 -0.45587158 68.72929382 C-0.45309984 66.19666479 -0.42205267 63.66523419 -0.390625 61.1328125 C-0.38315933 59.37019493 -0.37746794 57.60756904 -0.37347412 55.84494019 C-0.35824337 51.21859593 -0.3189839 46.59275855 -0.2746582 41.96661377 C-0.23365008 37.24083309 -0.2154513 32.51497004 -0.1953125 27.7890625 C-0.15248694 18.52581967 -0.08426685 9.26295208 0 0 Z " fill="#725960" transform="translate(0,10)"/>
<path d="M0 0 C2.57593134 1.01687654 4.99669011 2.25815186 7.4375 3.5625 C8.07365234 3.89185547 8.70980469 4.22121094 9.36523438 4.56054688 C10.91494576 5.36453248 12.45818322 6.18097666 14 7 C12.46687206 9.61456946 10.98175066 12.02237016 9.0625 14.375 C7.38857207 16.50545372 6.28180344 18.31280822 5.0625 20.6875 C2.88990502 24.17681921 1.89876431 25.02530892 -2 26 C-2.66 25.34 -3.32 24.68 -4 24 C-3.98854205 22.06074256 -3.89308303 20.12150567 -3.75 18.1875 C-3.50768891 13.92017164 -3.50768891 13.92017164 -5.328125 10.2734375 C-6.86812362 9.15801794 -8.43307251 8.07726265 -10 7 C-10.64173849 4.00522039 -10.43420693 2.76624752 -8.9375 0.125 C-5.82781478 -1.68062367 -3.45035074 -0.71181016 0 0 Z " fill="#34CC87" transform="translate(37,33)"/>
<path d="M0 0 C2.9375 0.75 2.9375 0.75 4.9375 2.75 C4.95178045 4.70927838 4.87668365 6.66976934 4.75 8.625 C4.61488667 11.83737676 4.61488667 11.83737676 4.9375 14.75 C7.31592577 17.15406384 7.31592577 17.15406384 9.9375 18.75 C10.480038 22.07304528 10.52708309 23.83614621 8.6875 26.6875 C6.9375 27.75 6.9375 27.75 4.75 27.4375 C4.151875 27.210625 3.55375 26.98375 2.9375 26.75 C3.2675 26.42 3.5975 26.09 3.9375 25.75 C-1.40181188 22.88965435 -6.14193568 21.01869235 -12.0625 19.75 C-12.0625 19.42 -12.0625 19.09 -12.0625 18.75 C-9.0925 18.42 -6.1225 18.09 -3.0625 17.75 C-3.0625 16.43 -3.0625 15.11 -3.0625 13.75 C-4.7125 13.75 -6.3625 13.75 -8.0625 13.75 C-9.24980958 10.18807127 -9.04580427 8.7007476 -7.8125 5.0625 C-5.70149505 1.0666692 -4.62933602 -0.37790498 0 0 Z " fill="#33C984" transform="translate(66.0625,21.25)"/>
<path d="M0 0 C0.33 0 0.66 0 1 0 C0.67 2.97 0.34 5.94 0 9 C-1.32 9.33 -2.64 9.66 -4 10 C-4 10.66 -4 11.32 -4 12 C-6.66293334 13.33146667 -8.62344985 13.0863794 -11.60449219 13.03759766 C-12.78041931 13.02072906 -13.95634644 13.00386047 -15.16790771 12.98648071 C-16.44796692 12.9625827 -17.72802612 12.93868469 -19.046875 12.9140625 C-20.36480042 12.89282318 -21.68272583 12.87158386 -23.04058838 12.84970093 C-25.84174197 12.8041201 -28.64280244 12.75493107 -31.44384766 12.703125 C-34.99366523 12.63766509 -38.54355347 12.58002455 -42.09354782 12.52509499 C-44.85124937 12.48167535 -47.60887491 12.43439327 -50.36649323 12.38599777 C-52.29920875 12.35260212 -54.23197129 12.32196294 -56.16473389 12.29141235 C-81.03041403 11.81667803 -81.03041403 11.81667803 -88 8 C-84.14776761 6.80930999 -81.1441004 7.25225884 -77.21875 7.84375 C-74.87475476 8.00882009 -73.24921971 7.62078464 -71 7 C-65.56122137 6.81870738 -60.2387597 7.11121988 -54.8125 7.5 C-47.13748791 8.04814879 -39.49392914 8.0662932 -31.80200195 7.96289062 C-26.11430179 7.90886553 -20.63885536 8.28613225 -15 9 C-11.60114341 9.31765015 -8.38137452 9.5473448 -5 9 C-1.99260852 6.35936358 -0.58672719 3.96040855 0 0 Z " fill="#E5799F" transform="translate(99,82)"/>
<path d="M0 0 C2.375 0.5 2.375 0.5 5.375 2.5 C5.08136093 5.92578919 4.3813241 7.49181587 2.25 10.25 C-1.14406594 12.90622552 -3.41630891 13.0235444 -7.625 13.5 C-8.615 14.985 -8.615 14.985 -9.625 16.5 C-11.43793089 16.35962479 -13.2503443 16.21255111 -15.0625 16.0625 C-16.57650391 15.94068359 -16.57650391 15.94068359 -18.12109375 15.81640625 C-20.625 15.5 -20.625 15.5 -21.625 14.5 C-22.08375252 9.22434608 -22.08375252 9.22434608 -20.4375 6.625 C-18.03909825 5.13633684 -16.39693929 5.20821692 -13.625 5.5 C-13.295 5.83 -12.965 6.16 -12.625 6.5 C-10.29671371 7.08610371 -10.29671371 7.08610371 -7.625 6.5 C-6.8 5.51 -5.975 4.52 -5.125 3.5 C-2.625 0.5 -2.625 0.5 0 0 Z " fill="#2BC25F" transform="translate(54.625,15.5)"/>
<path d="M0 0 C5.28 2.64 10.56 5.28 16 8 C15.67 9.65 15.34 11.3 15 13 C13.948125 13.03867187 13.948125 13.03867187 12.875 13.078125 C7.93763229 13.37329372 3.89574341 13.74670599 -0.5 16.125 C-1.655 16.74375 -2.81 17.3625 -4 18 C-4.99 17.67 -5.98 17.34 -7 17 C-5.69925606 10.49628031 -3.38877665 5.7074133 0 0 Z " fill="#2CE06B" transform="translate(52,41)"/>
<path d="M0 0 C0.33 0 0.66 0 1 0 C0.53471377 7.44457964 -2.59995815 12.88417088 -8 18 C-13.68502535 16.35433477 -18.76681636 13.70967216 -24 11 C-24 10.01 -24 9.02 -24 8 C-20.7 8.33 -17.4 8.66 -14 9 C-13.34 8.01 -12.68 7.02 -12 6 C-10.906875 5.87625 -9.81375 5.7525 -8.6875 5.625 C-4.23359525 4.87010089 -2.90761868 3.33520966 0 0 Z " fill="#1BAA4D" transform="translate(59,22)"/>
<path d="M0 0 C0.66 0.33 1.32 0.66 2 1 C1.67 1.66 1.34 2.32 1 3 C0.34 3 -0.32 3 -1 3 C-0.75908242 10.7730053 -0.51574003 18.54593086 -0.26950932 26.31876945 C-0.15518048 29.93008926 -0.04161064 33.54142923 0.07006836 37.15283203 C0.77855589 60.08769613 0.77855589 60.08769613 2 83 C1.34 82.67 0.68 82.34 0 82 C-2.31967299 74.30672361 -2.31881657 66.18151428 -2.37890625 58.21875 C-2.40439796 56.45488953 -2.40439796 56.45488953 -2.43040466 54.65539551 C-2.4830934 50.93698341 -2.52366428 47.21858048 -2.5625 43.5 C-2.60647883 39.75290742 -2.65312677 36.00589872 -2.70530701 32.25891113 C-2.73719171 29.93630349 -2.76410412 27.61362115 -2.78553772 25.29089355 C-2.79902756 24.24550415 -2.8125174 23.20011475 -2.82641602 22.12304688 C-2.83592789 21.20358276 -2.84543976 20.28411865 -2.85523987 19.33679199 C-2.90919127 16.84414964 -2.90919127 16.84414964 -4 14 C-4.54184779 9.25661115 -4.66079766 6.01184642 -2 1.9375 C-1.34 1.298125 -0.68 0.65875 0 0 Z " fill="#E67FA3" transform="translate(6,2)"/>
<path d="M0 0 C0.66 0.66 1.32 1.32 2 2 C4.57061311 2.64767793 4.57061311 2.64767793 7 3 C7 4.32 7 5.64 7 7 C4.69 7.66 2.38 8.32 0 9 C1.175625 9.2475 2.35125 9.495 3.5625 9.75 C7.90806003 10.81896129 11.21724066 12.63577541 15 15 C14.01 15.495 14.01 15.495 13 16 C13 18.64 13 21.28 13 24 C11.96359375 24.02578125 10.9271875 24.0515625 9.859375 24.078125 C8.48954199 24.13441951 7.11975195 24.19176655 5.75 24.25 C5.06808594 24.26417969 4.38617188 24.27835938 3.68359375 24.29296875 C0.18889977 24.46261409 -1.62797238 24.66874253 -4.28125 27.03125 C-4.8484375 27.6809375 -5.415625 28.330625 -6 29 C-9.25 29.25 -9.25 29.25 -12 29 C-11.67 26.69 -11.34 24.38 -11 22 C-10.67 23.32 -10.34 24.64 -10 26 C-5.96713564 24.75002731 -5.96713564 24.75002731 -2.15625 22.96875 C0.51893641 21.76685466 2.83162423 21.58345541 5.75 21.375 C6.73484375 21.30023438 7.7196875 21.22546875 8.734375 21.1484375 C9.48203125 21.09945312 10.2296875 21.05046875 11 21 C11.33 19.68 11.66 18.36 12 17 C11.195625 16.773125 10.39125 16.54625 9.5625 16.3125 C5.08714261 14.66368412 1.11278682 12.39455588 -3 10 C-2.49287967 6.28111761 -1.88391785 3.26545761 0 0 Z " fill="#129D4D" transform="translate(56,32)"/>
<path d="M0 0 C0.66 0 1.32 0 2 0 C1.3125 1.9375 1.3125 1.9375 0 4 C-3.93620498 5.14356785 -7.73081436 5.09539565 -11.80639648 5.03759766 C-12.47048523 5.02959641 -13.13457397 5.02159515 -13.81878662 5.01335144 C-16.00299854 4.98558744 -18.18700314 4.9500574 -20.37109375 4.9140625 C-21.89656607 4.89227203 -23.42204331 4.87082343 -24.94752502 4.84970093 C-28.1409416 4.80428005 -31.33427102 4.75507383 -34.52758789 4.703125 C-38.61058792 4.6369554 -42.69365398 4.57963524 -46.776824 4.52509499 C-49.92622739 4.48213814 -53.07555202 4.43474259 -56.22487068 4.38599777 C-57.72987018 4.36317964 -59.23488998 4.34166135 -60.73992729 4.32149124 C-62.8481191 4.29251482 -64.95613445 4.25761943 -67.06420898 4.22119141 C-68.26158188 4.20263092 -69.45895477 4.18407043 -70.69261169 4.16494751 C-73.86900692 4.00653294 -76.87794159 3.5914127 -80 3 C-80 2.67 -80 2.34 -80 2 C-53.6 2 -27.2 2 0 2 C0 1.34 0 0.68 0 0 Z " fill="#BB6482" transform="translate(95,92)"/>
<path d="M0 0 C0.99 0.33 1.98 0.66 3 1 C1 3 -1 5 -3 7 C-3.13052136 9.87146998 -3.11782744 12.46686507 -2.49609375 15.2800293 C-1.90937501 18.49687647 -1.90534348 21.49961514 -1.9375 24.76953125 C-1.94523438 26.07083984 -1.95296875 27.37214844 -1.9609375 28.71289062 C-1.9795352 30.75986109 -1.99994282 32.80680822 -2.02050781 34.85375977 C-2.08615212 42.01158093 -2.0366781 48.91603298 -1 56 C-1.165 56.804375 -1.33 57.60875 -1.5 58.4375 C-2.00419986 61.02152429 -1.85678606 62.6677609 -1.5 65.25 C-0.86651905 70.02115397 -1.32065918 74.24461425 -2 79 C-2.33 79 -2.66 79 -3 79 C-3.84752759 70.04636497 -4.2926936 61.1133757 -4.5625 52.125 C-4.58367889 51.44566406 -4.60485779 50.76632813 -4.62667847 50.06640625 C-5.08849634 35.04344667 -5.10618243 20.02889804 -5 5 C-4.34 5 -3.68 5 -3 5 C-2.87625 4.360625 -2.7525 3.72125 -2.625 3.0625 C-2.41875 2.381875 -2.2125 1.70125 -2 1 C-1.34 0.67 -0.68 0.34 0 0 Z " fill="#F78CB2" transform="translate(10,0)"/>
<path d="M0 0 C0.33 0 0.66 0 1 0 C1.01981934 1.20011719 1.03963867 2.40023437 1.06005859 3.63671875 C1.13650829 8.11722718 1.22516322 12.59742743 1.31738281 17.07763672 C1.35551065 19.0114938 1.3903909 20.94541788 1.421875 22.87939453 C1.46787923 25.6698389 1.52581312 28.45982835 1.5859375 31.25 C1.59748871 32.10553467 1.60903992 32.96106934 1.62094116 33.8425293 C1.81167443 41.71624609 2.78259615 48.73911538 8 55 C13.12706782 57.83337959 19.05849175 58.11404851 24.82177734 58.20532227 C26.50284073 58.2352401 26.50284073 58.2352401 28.21786499 58.26576233 C29.41182892 58.28247482 30.60579285 58.29918732 31.8359375 58.31640625 C33.07042633 58.33718735 34.30491516 58.35796844 35.57681274 58.37937927 C39.50948671 58.44461836 43.44222589 58.50364052 47.375 58.5625 C50.04558857 58.60520612 52.71615149 58.64932464 55.38671875 58.69335938 C61.92441079 58.80027347 68.46216729 58.90208701 75 59 C75 59.33 75 59.66 75 60 C67.18484813 60.09299735 59.36982777 60.16391473 51.55426025 60.20724869 C47.92448269 60.22805515 44.29508585 60.25624354 40.66552734 60.30175781 C37.15768737 60.34546659 33.6502118 60.36918921 30.14212036 60.37950897 C28.16355356 60.39041254 26.18513179 60.42159835 24.20678711 60.45318604 C16.44982165 60.45510595 10.37534703 60.09674942 4.45385742 54.55230713 C0.63063091 50.28681669 -0.12877947 46.87572758 -0.11352539 41.32324219 C-0.11341209 39.94226349 -0.11341209 39.94226349 -0.11329651 38.53338623 C-0.10813522 37.54783752 -0.10297394 36.56228882 -0.09765625 35.546875 C-0.0962413 34.53151672 -0.09482635 33.51615845 -0.09336853 32.47003174 C-0.08777516 29.22999108 -0.07522385 25.99001975 -0.0625 22.75 C-0.05748414 20.55208433 -0.05292139 18.35416758 -0.04882812 16.15625 C-0.0378079 10.77080971 -0.02107633 5.38540981 0 0 Z " fill="#9A556D" transform="translate(2,37)"/>
<path d="M0 0 C0.33 0 0.66 0 1 0 C1.74444494 4.69847607 2.15058855 9.25029734 2.23706055 14.00512695 C2.25017273 14.66617935 2.26328491 15.32723175 2.27679443 16.00831604 C2.31818922 18.16824858 2.35293112 20.32821719 2.38671875 22.48828125 C2.41240484 23.99806377 2.43818865 25.50784464 2.46406555 27.0176239 C2.51681301 30.168689 2.56577832 33.3197881 2.61254883 36.47094727 C2.67323939 40.51422635 2.7474484 44.55713773 2.82492352 48.60012531 C2.88238956 51.71146825 2.93074265 54.82290371 2.976511 57.93443871 C2.99994209 59.42607336 3.02670342 60.9176595 3.05682945 62.40917397 C3.09783196 64.48671737 3.12610124 66.56405701 3.15112305 68.6418457 C3.17031296 69.82430374 3.18950287 71.00676178 3.20927429 72.22505188 C3 75 3 75 1 77 C-0.18574288 73.44277137 -0.11990193 70.62223456 -0.11352539 66.86645508 C-0.11367142 66.14425278 -0.11381744 65.42205048 -0.1139679 64.67796326 C-0.11327145 62.29178866 -0.1054916 59.90569221 -0.09765625 57.51953125 C-0.09579112 55.8647211 -0.09436766 54.20991039 -0.09336853 52.55509949 C-0.08955085 48.20018997 -0.07972695 43.84531382 -0.06866455 39.49041748 C-0.05843433 35.04635062 -0.05386745 30.60227837 -0.04882812 26.15820312 C-0.03810402 17.43878677 -0.02103657 8.71939754 0 0 Z " fill="#7E5864" transform="translate(0,10)"/>
<path d="M0 0 C12.375 0 12.375 0 17 1 C17 4.3 17 7.6 17 11 C16.01 11 15.02 11 14 11 C13.814375 9.2984375 13.814375 9.2984375 13.625 7.5625 C13.41875 6.386875 13.2125 5.21125 13 4 C12.34 3.67 11.68 3.34 11 3 C11 5.64 11 8.28 11 11 C9.68 11 8.36 11 7 11 C7 8.36 7 5.72 7 3 C6.01 3.495 6.01 3.495 5 4 C4.53476937 5.89533342 4.53476937 5.89533342 4.375 8.0625 C4.189375 10.0115625 4.189375 10.0115625 4 12 C2.68 12 1.36 12 0 12 C0 8.04 0 4.08 0 0 Z " fill="#140E10" transform="translate(50,74)"/>
<path d="M0 0 C0.33 0 0.66 0 1 0 C0.93993922 1.45947705 0.8511311 2.91779272 0.75 4.375 C0.70359375 5.18710938 0.6571875 5.99921875 0.609375 6.8359375 C0 9 0 9 -1.69360352 10.11865234 C-4.44257795 11.16912315 -6.56840522 11.25881459 -9.51171875 11.265625 C-10.64335449 11.26949219 -11.77499023 11.27335937 -12.94091797 11.27734375 C-14.17729004 11.26832031 -15.41366211 11.25929688 -16.6875 11.25 C-17.97285645 11.24613281 -19.25821289 11.24226563 -20.58251953 11.23828125 C-38.73777811 11.11791849 -56.87706971 10.01206324 -75 9 C-68.34943626 5.27744994 -60.1354007 7.12048317 -52.7956543 7.64379883 C-45.79777028 8.09670246 -38.81152467 8.05711964 -31.80200195 7.96289062 C-26.11430179 7.90886553 -20.63885536 8.28613225 -15 9 C-11.60114341 9.31765015 -8.38137452 9.5473448 -5 9 C-1.99260852 6.35936358 -0.58672719 3.96040855 0 0 Z " fill="#F48AAF" transform="translate(99,82)"/>
<path d="M0 0 C0.66 0.33 1.32 0.66 2 1 C1.6875 4.375 1.6875 4.375 1 8 C-2.51002823 10.34001882 -3.00096706 10.0524498 -6.9375 9.3125 C-9.5765038 8.90790947 -9.5765038 8.90790947 -12 9 C-14.24191401 11.32321702 -14.24191401 11.32321702 -16 14 C-19.75 14.8125 -19.75 14.8125 -23 15 C-23.99 13.68 -24.98 12.36 -26 11 C-24.39125 10.87625 -24.39125 10.87625 -22.75 10.75 C-18.97784407 10.3952471 -18.97784407 10.3952471 -17.25 7.96875 C-14.0958253 5.20884713 -11.22252496 5.55475303 -7.25 5.75 C-6.55261719 5.76804687 -5.85523437 5.78609375 -5.13671875 5.8046875 C-3.42388461 5.85161446 -1.71176176 5.92335395 0 6 C0 4.02 0 2.04 0 0 Z " fill="#3B9756" transform="translate(69,50)"/>
<path d="M0 0 C0.721875 0.12375 1.44375 0.2475 2.1875 0.375 C1.5275 1.035 0.8675 1.695 0.1875 2.375 C0.1875 3.695 0.1875 5.015 0.1875 6.375 C-2.66635693 9.32994723 -6.22206271 11.14815474 -10.27734375 11.7265625 C-15.99811208 11.78219396 -15.99811208 11.78219396 -18.8125 10.375 C-19.5 8.375 -19.5 8.375 -19.8125 6.375 C-18.8125 5.375 -18.8125 5.375 -16.3125 5.25 C-13.8125 5.375 -13.8125 5.375 -12.8125 6.375 C-10.48421371 6.96110371 -10.48421371 6.96110371 -7.8125 6.375 C-6.9875 5.385 -6.1625 4.395 -5.3125 3.375 C-2.8125 0.375 -2.8125 0.375 0 0 Z " fill="#46E479" transform="translate(54.8125,15.625)"/>
<path d="M0 0 C0.556875 0.7425 1.11375 1.485 1.6875 2.25 C5.88036946 7.23611504 10.18888794 10.62139691 16.80317688 11.2784729 C18.33206795 11.2984584 18.33206795 11.2984584 19.8918457 11.31884766 C21.63308464 11.34865219 21.63308464 11.34865219 23.40950012 11.37905884 C25.27380928 11.39638565 25.27380928 11.39638565 27.17578125 11.4140625 C28.45607712 11.43342865 29.73637299 11.4527948 31.0554657 11.4727478 C34.4468778 11.52393948 37.83832945 11.56363407 41.22991943 11.60089111 C44.6956958 11.64101249 48.16130948 11.69206758 51.62695312 11.7421875 C58.41786395 11.83818145 65.20884594 11.92324652 72 12 C72 12.33 72 12.66 72 13 C63.88950342 13.09284297 55.77923035 13.16383673 47.66833305 13.20724869 C43.90174409 13.22808854 40.13551976 13.25633908 36.36914062 13.30175781 C32.73163413 13.34534598 29.09447747 13.36916419 25.45672989 13.37950897 C24.07167176 13.38687726 22.68663193 13.40126605 21.30172348 13.42292023 C7.81496656 13.62533422 7.81496656 13.62533422 3 9 C0.42297891 5.56397188 0 4.39927132 0 0 Z " fill="#704452" transform="translate(2,85)"/>
<path d="M0 0 C0.928125 0.20625 1.85625 0.4125 2.8125 0.625 C2.37810831 5.54810579 0.3009897 8.21403229 -3.1875 11.625 C-6.5 12.5 -6.5 12.5 -9.1875 12.625 C-8.51505582 8.81448298 -7.62663922 5.22284804 -6.1875 1.625 C-3.1875 -0.375 -3.1875 -0.375 0 0 Z " fill="#2BD185" transform="translate(66.1875,21.375)"/>
<path d="M0 0 C0.94875 0.04125 1.8975 0.0825 2.875 0.125 C3.535 1.445 4.195 2.765 4.875 4.125 C3.225 4.125 1.575 4.125 -0.125 4.125 C1.855 4.785 3.835 5.445 5.875 6.125 C5 10 5 10 3.875 11.125 C1.20441149 11.26615161 -1.44932238 11.16747107 -4.125 11.125 C-4.455 10.135 -4.785 9.145 -5.125 8.125 C-2.815 8.455 -0.505 8.785 1.875 9.125 C1.875 8.465 1.875 7.805 1.875 7.125 C-1.095 6.63 -1.095 6.63 -4.125 6.125 C-4.75 4.25 -4.75 4.25 -5.125 2.125 C-3.125 0.125 -3.125 0.125 0 0 Z " fill="#150E10" transform="translate(37.125,73.875)"/>
<path d="M0 0 C0.33 0 0.66 0 1 0 C0.6216851 6.05303839 -1.29717165 10.18382123 -5 15 C-5.33 15 -5.66 15 -6 15 C-6 12.69 -6 10.38 -6 8 C-6.33 8 -6.66 8 -7 8 C-7.33 9.98 -7.66 11.96 -8 14 C-8.99 13.67 -9.98 13.34 -11 13 C-11.33 10.69 -11.66 8.38 -12 6 C-10.4221875 5.9071875 -10.4221875 5.9071875 -8.8125 5.8125 C-4.3573988 4.8630522 -2.93708996 3.36901495 0 0 Z " fill="#10923D" transform="translate(59,22)"/>
<path d="M0 0 C0.99 0.33 1.98 0.66 3 1 C0.59016389 3.65620913 -1.7267014 5.50376646 -5 7 C-10.10298775 7.23171993 -14.95306097 6.72286887 -20 6 C-19.67 5.01 -19.34 4.02 -19 3 C-18.04738281 3.03480469 -17.09476563 3.06960937 -16.11328125 3.10546875 C-14.85902344 3.13253906 -13.60476562 3.15960938 -12.3125 3.1875 C-11.07113281 3.22230469 -9.82976563 3.25710937 -8.55078125 3.29296875 C-4.76745118 2.9808128 -3.13064197 2.00119846 0 0 Z " fill="#53C683" transform="translate(39,60)"/>
<path d="M0 0 C0.33 0 0.66 0 1 0 C1 2.31 1 4.62 1 7 C-0.03640625 7.02578125 -1.0728125 7.0515625 -2.140625 7.078125 C-3.51045801 7.13441951 -4.88024805 7.19176655 -6.25 7.25 C-6.93191406 7.26417969 -7.61382812 7.27835938 -8.31640625 7.29296875 C-11.81110023 7.46261409 -13.62797238 7.66874253 -16.28125 10.03125 C-16.8484375 10.6809375 -17.415625 11.330625 -18 12 C-21.25 12.25 -21.25 12.25 -24 12 C-23.67 9.69 -23.34 7.38 -23 5 C-22.67 6.32 -22.34 7.64 -22 9 C-17.96713564 7.75002731 -17.96713564 7.75002731 -14.15625 5.96875 C-11.48106359 4.76685466 -9.16837577 4.58345541 -6.25 4.375 C-5.26515625 4.30023438 -4.2803125 4.22546875 -3.265625 4.1484375 C-2.51796875 4.09945312 -1.7703125 4.05046875 -1 4 C-0.67 2.68 -0.34 1.36 0 0 Z " fill="#26B457" transform="translate(68,49)"/>
<path d="M0 0 C0.33 0 0.66 0 1 0 C1.06058594 1.28777344 1.12117187 2.57554688 1.18359375 3.90234375 C1.26798247 5.58074159 1.3526313 7.25912636 1.4375 8.9375 C1.47681641 9.78763672 1.51613281 10.63777344 1.55664062 11.51367188 C1.59853516 12.32255859 1.64042969 13.13144531 1.68359375 13.96484375 C1.72025146 14.7137085 1.75690918 15.46257324 1.79467773 16.23413086 C1.81771063 18.02461326 1.81771063 18.02461326 3 19 C3.15582303 20.34015221 3.25044142 21.68758903 3.31640625 23.03515625 C3.35830078 23.84404297 3.40019531 24.65292969 3.44335938 25.48632812 C3.48267578 26.33646484 3.52199219 27.18660156 3.5625 28.0625 C3.60568359 28.91650391 3.64886719 29.77050781 3.69335938 30.65039062 C3.79976702 32.76672037 3.90041731 34.88333813 4 37 C3.34 36.67 2.68 36.34 2 36 C-0.4142243 28.16174339 -0.24856187 19.92481191 -0.125 11.8125 C-0.11597656 10.66974609 -0.10695312 9.52699219 -0.09765625 8.34960938 C-0.07436393 5.5661769 -0.04165999 2.78320771 0 0 Z " fill="#E0769C" transform="translate(4,48)"/>
<path d="M0 0 C3.7910119 1.44950455 7.3874638 3.15172566 11 5 C10.67 6.65 10.34 8.3 10 10 C6.7 10 3.4 10 0 10 C0.33 9.34 0.66 8.68 1 8 C3.0625 7.375 3.0625 7.375 5 7 C5 6.34 5 5.68 5 5 C4.360625 4.731875 3.72125 4.46375 3.0625 4.1875 C1 3 1 3 0 0 Z " fill="#25D464" transform="translate(57,44)"/>
<path d="M0 0 C0.66 0.33 1.32 0.66 2 1 C0.93071226 2.65499311 -0.15597192 4.29875626 -1.25 5.9375 C-1.85328125 6.85402344 -2.4565625 7.77054688 -3.078125 8.71484375 C-5 11 -5 11 -7.109375 11.94140625 C-8.04523437 11.97041016 -8.04523437 11.97041016 -9 12 C-9.66 11.34 -10.32 10.68 -11 10 C-11 9.01 -11 8.02 -11 7 C-10.18595703 6.61908203 -10.18595703 6.61908203 -9.35546875 6.23046875 C-8.64003906 5.88628906 -7.92460938 5.54210938 -7.1875 5.1875 C-6.47980469 4.85105469 -5.77210937 4.51460937 -5.04296875 4.16796875 C-2.98870965 2.99354529 -1.58383722 1.74371984 0 0 Z " fill="#2BBD7A" transform="translate(44,47)"/>
<path d="M0 0 C0.66 0.66 1.32 1.32 2 2 C-3.10145848 6.42126402 -5.86930004 8.23318577 -12.92578125 8.16796875 C-15.81155938 7.9342805 -18.32451522 7.07019391 -21 6 C-21 5.67 -21 5.34 -21 5 C-19.60587891 5.08701172 -19.60587891 5.08701172 -18.18359375 5.17578125 C-9.94074463 5.70455481 -9.94074463 5.70455481 -2.625 2.5 C-1.325625 1.2625 -1.325625 1.2625 0 0 Z " fill="#3B935F" transform="translate(41,61)"/>
<path d="M0 0 C0.66 0 1.32 0 2 0 C3.12636695 7.38396112 3.12636695 7.38396112 2.5 10.4375 C1.99580014 13.02152429 2.14321394 14.6677609 2.5 17.25 C3.13348095 22.02115397 2.67934082 26.24461425 2 31 C1.67 31 1.34 31 1 31 C-0.1555538 20.66192051 -0.09776087 10.38437692 0 0 Z " fill="#F587AE" transform="translate(6,48)"/>
<path d="M0 0 C0.66 0.66 1.32 1.32 2 2 C4.57061311 2.64767793 4.57061311 2.64767793 7 3 C7 4.32 7 5.64 7 7 C6.04287109 7.07347656 6.04287109 7.07347656 5.06640625 7.1484375 C4.24011719 7.22320312 3.41382813 7.29796875 2.5625 7.375 C1.73878906 7.44460937 0.91507813 7.51421875 0.06640625 7.5859375 C-0.95646484 7.79089844 -0.95646484 7.79089844 -2 8 C-2.33 8.66 -2.66 9.32 -3 10 C-2.49287967 6.28111761 -1.88391785 3.26545761 0 0 Z " fill="#21C577" transform="translate(56,32)"/>
<path d="M0 0 C0.66 0 1.32 0 2 0 C1.0195412 2.58484592 0.06077857 3.94843031 -2.0625 5.75 C-6.05577552 7.44926618 -9.71180044 7.43808718 -14 7 C-16 6 -16 6 -16.6875 4 C-16.790625 3.34 -16.89375 2.68 -17 2 C-16 1 -16 1 -13.4375 0.9375 C-12.2309375 0.9684375 -12.2309375 0.9684375 -11 1 C-11.66 1.66 -12.32 2.32 -13 3 C-11.8448749 4.38177162 -11.8448749 4.38177162 -8.6875 4.125 C-4.72434793 4.06091235 -4.72434793 4.06091235 -1 3 C-0.67 2.01 -0.34 1.02 0 0 Z " fill="#5AE985" transform="translate(52,20)"/>
<path d="M0 0 C1.32 0 2.64 0 4 0 C4 3.96 4 7.92 4 12 C2.68 12 1.36 12 0 12 C0 8.04 0 4.08 0 0 Z " fill="#2C1E23" transform="translate(50,74)"/>
<path d="M0 0 C1.32 0 2.64 0 4 0 C4 3.96 4 7.92 4 12 C2.68 12 1.36 12 0 12 C0 8.04 0 4.08 0 0 Z " fill="#2D1F24" transform="translate(44,74)"/>
<path d="M0 0 C0.66 0 1.32 0 2 0 C2.23053497 2.84326464 2.35903101 4.46145349 0.75 6.875 C-1 8 -1 8 -3.1875 7.6875 C-3.785625 7.460625 -4.38375 7.23375 -5 7 C-4.67 6.67 -4.34 6.34 -4 6 C-5.98 5.01 -7.96 4.02 -10 3 C-10 2.67 -10 2.34 -10 2 C-6.7 2 -3.4 2 0 2 C0 1.34 0 0.68 0 0 Z " fill="#29AE71" transform="translate(74,41)"/>
<path d="M0 0 C0.99 0.33 1.98 0.66 3 1 C1 3 -1 5 -3 7 C-3.13288395 9.92344683 -3.08900296 12.56611057 -2.5 15.4375 C-1.87237325 18.65408707 -1.9359091 21.73136435 -2 25 C-5.08137704 21.91862296 -4.97281954 18.92739734 -5.09765625 14.66796875 C-5.08605469 13.51941406 -5.07445312 12.37085938 -5.0625 11.1875 C-5.05347656 10.02605469 -5.04445313 8.86460938 -5.03515625 7.66796875 C-5.02355469 6.78753906 -5.01195312 5.90710938 -5 5 C-4.34 5 -3.68 5 -3 5 C-2.87625 4.360625 -2.7525 3.72125 -2.625 3.0625 C-2.41875 2.381875 -2.2125 1.70125 -2 1 C-1.34 0.67 -0.68 0.34 0 0 Z " fill="#F998B9" transform="translate(10,0)"/>
<path d="M0 0 C0.598125 0.226875 1.19625 0.45375 1.8125 0.6875 C1.8125 1.3475 1.8125 2.0075 1.8125 2.6875 C2.4725 2.6875 3.1325 2.6875 3.8125 2.6875 C3.8125 3.6775 3.8125 4.6675 3.8125 5.6875 C1.1725 5.6875 -1.4675 5.6875 -4.1875 5.6875 C-4.5175 6.3475 -4.8475 7.0075 -5.1875 7.6875 C-5.41803497 4.84423536 -5.54653101 3.22604651 -3.9375 0.8125 C-2.1875 -0.3125 -2.1875 -0.3125 0 0 Z " fill="#57DF9D" transform="translate(32.1875,32.3125)"/>
<path d="M0 0 C1.4540625 0.0309375 1.4540625 0.0309375 2.9375 0.0625 C3.5975 1.3825 4.2575 2.7025 4.9375 4.0625 C3.2875 4.0625 1.6375 4.0625 -0.0625 4.0625 C-0.0625 4.7225 -0.0625 5.3825 -0.0625 6.0625 C-1.7125 5.7325 -3.3625 5.4025 -5.0625 5.0625 C-3.9375 0.08035714 -3.9375 0.08035714 0 0 Z " fill="#21171A" transform="translate(37.0625,73.9375)"/>
<path d="M0 0 C0.391875 0.495 0.78375 0.99 1.1875 1.5 C3.55091715 3.45593143 5.01435003 3.24207973 8 3 C6 6 6 6 3.8359375 6.73046875 C2.61777344 6.95669922 2.61777344 6.95669922 1.375 7.1875 C0.14910156 7.42533203 0.14910156 7.42533203 -1.1015625 7.66796875 C-2.04128906 7.83232422 -2.04128906 7.83232422 -3 8 C-2.45276317 4.62537285 -1.9451 2.91765 0 0 Z " fill="#4BE87D" transform="translate(50,49)"/>
<path d="M0 0 C0.66 0.33 1.32 0.66 2 1 C2 5.29 2 9.58 2 14 C0.68 13.67 -0.64 13.34 -2 13 C-2.19294408 8.17639811 -1.75747614 4.50353262 0 0 Z " fill="#47A476" transform="translate(69,23)"/>
<path d="M0 0 C2.00720923 0.28674418 4.0085944 0.61866701 6 1 C5.24266726 2.3410477 4.46867264 3.67269781 3.6875 5 C3.25824219 5.7425 2.82898438 6.485 2.38671875 7.25 C1.92910156 7.8275 1.47148438 8.405 1 9 C0.01 9 -0.98 9 -2 9 C-1.125 1.125 -1.125 1.125 0 0 Z " fill="#57E39F" transform="translate(63,21)"/>
<path d="M0 0 C0.66 0.33 1.32 0.66 2 1 C-1.57729872 5.66132863 -5.10867301 8.73911534 -10 12 C-8.01239669 5.11983471 -8.01239669 5.11983471 -5 3 C-2.3125 2.3125 -2.3125 2.3125 0 2 C0 1.34 0 0.68 0 0 Z " fill="#29CF83" transform="translate(49,40)"/>
<path d="M0 0 C2.97 0 5.94 0 9 0 C9 0.66 9 1.32 9 2 C3.58461538 5.07692308 3.58461538 5.07692308 0.625 4.6875 C0.08875 4.460625 -0.4475 4.23375 -1 4 C-0.67 2.68 -0.34 1.36 0 0 Z " fill="#179656" transform="translate(40,40)"/>
<path d="M0 0 C3 1 3 1 4 3 C8.45237037 4.85849694 12.58302519 5.35375614 17.375 5.625 C18.62023437 5.69976562 19.86546875 5.77453125 21.1484375 5.8515625 C22.08945312 5.90054688 23.03046875 5.94953125 24 6 C24 6.33 24 6.66 24 7 C21.27022936 7.08126109 18.5428983 7.14061663 15.8125 7.1875 C15.04357422 7.21263672 14.27464844 7.23777344 13.48242188 7.26367188 C8.81030403 7.3238279 5.7969397 7.03755176 2 4 C0.6875 1.8125 0.6875 1.8125 0 0 Z " fill="#D06C8F" transform="translate(8,87)"/>
<path d="M0 0 C1.47968023 2.95936046 0.84835797 4.86760134 0 8 C-2.0625 9.375 -2.0625 9.375 -4 10 C-4 9.34 -4 8.68 -4 8 C-5.65 8 -7.3 8 -9 8 C-9 7.34 -9 6.68 -9 6 C-8.071875 5.7525 -7.14375 5.505 -6.1875 5.25 C-2.83541675 3.93545755 -1.8122197 3.02036616 0 0 Z " fill="#2BC37E" transform="translate(67,27)"/>
<path d="M0 0 C1.65322266 0.01740234 1.65322266 0.01740234 3.33984375 0.03515625 C4.99693359 0.04869141 4.99693359 0.04869141 6.6875 0.0625 C7.54214844 0.07410156 8.39679688 0.08570313 9.27734375 0.09765625 C9.27734375 1.08765625 9.27734375 2.07765625 9.27734375 3.09765625 C8.26414062 2.91976562 8.26414062 2.91976562 7.23046875 2.73828125 C1.59243547 1.71479887 1.59243547 1.71479887 -3.34765625 4.03515625 C-3.80140625 4.71578125 -4.25515625 5.39640625 -4.72265625 6.09765625 C-3.65171431 0.13097971 -3.65171431 0.13097971 0 0 Z " fill="#4A8E5A" transform="translate(57.72265625,56.90234375)"/>
<path d="M0 0 C1.98 0.66 3.96 1.32 6 2 C6 2.99 6 3.98 6 5 C6.99 5.33 7.98 5.66 9 6 C5.21812119 7.83691257 3.05431692 8.15837626 -1 7 C0.32 6.67 1.64 6.34 3 6 C3 5.01 3 4.02 3 3 C2.34 3 1.68 3 1 3 C0.67 2.01 0.34 1.02 0 0 Z " fill="#30D88A" transform="translate(33,32)"/>
<path d="M0 0 C0.33 0.66 0.66 1.32 1 2 C0.29296875 3.734375 0.29296875 3.734375 -0.8125 5.75 C-2.57574291 9.09345023 -3.91053122 12.36843741 -5 16 C-5.33 15.34 -5.66 14.68 -6 14 C-6.99 13.67 -7.98 13.34 -9 13 C-8.443125 12.525625 -7.88625 12.05125 -7.3125 11.5625 C-4.16612276 8.07597387 -2.16197674 4.14674227 0 0 Z " fill="#098036" transform="translate(48,46)"/>
<path d="M0 0 C3.16115776 1.36983503 3.9927092 1.9890638 6 5 C9.56748077 6.78374039 13.06754014 7.45128467 17 8 C17 8.33 17 8.66 17 9 C9.84517662 9.4934361 6.63070968 8.14661506 1.125 3.375 C0 2 0 2 0 0 Z " fill="#9A526B" transform="translate(4,87)"/>
<path d="M0 0 C-0.99 1.485 -0.99 1.485 -2 3 C-5.63 2.67 -9.26 2.34 -13 2 C-13 1.34 -13 0.68 -13 0 C-11.20909747 -0.19466332 -9.41723495 -0.38051213 -7.625 -0.5625 C-6.12839844 -0.71912109 -6.12839844 -0.71912109 -4.6015625 -0.87890625 C-2 -1 -2 -1 0 0 Z " fill="#26BC59" transform="translate(47,29)"/>
<path d="M0 0 C5.70629354 0.42797202 9.41078616 2.84345952 14 6 C11 7 11 7 8.30078125 5.78515625 C7.31464844 5.21667969 6.32851563 4.64820313 5.3125 4.0625 C4.31863281 3.49660156 3.32476562 2.93070313 2.30078125 2.34765625 C1.54152344 1.90292969 0.78226563 1.45820312 0 1 C0 0.67 0 0.34 0 0 Z " fill="#098E3C" transform="translate(36,32)"/>
<path d="M0 0 C0.66 0 1.32 0 2 0 C4.1519437 3.22791555 4.20086443 4.28400809 4 8 C2.68 8 1.36 8 0 8 C0 5.36 0 2.72 0 0 Z " fill="#16BB4F" transform="translate(52,43)"/>
<path d="M0 0 C1.32 0 2.64 0 4 0 C3.5020163 3.73487777 3.12508244 5.81237635 1 9 C-1.625 9.1875 -1.625 9.1875 -4 9 C-2.71034824 7.62437146 -1.37310707 6.29233607 0 5 C0.66 5 1.32 5 2 5 C2 3.68 2 2.36 2 1 C1.34 0.67 0.68 0.34 0 0 Z " fill="#32DA6C" transform="translate(53,17)"/>
<path d="M0 0 C0 3 0 3 -2.5 5.6875 C-3.325 6.450625 -4.15 7.21375 -5 8 C-6.32 7.34 -7.64 6.68 -9 6 C-9 5.34 -9 4.68 -9 4 C-8.071875 4.0825 -7.14375 4.165 -6.1875 4.25 C-2.90894778 4.35303045 -2.90894778 4.35303045 -1.125 2 C-0.75375 1.34 -0.3825 0.68 0 0 Z " fill="#31A16A" transform="translate(42,51)"/>
<path d="M0 0 C-0.66 1.32 -1.32 2.64 -2 4 C-5.63 4 -9.26 4 -13 4 C-13 3.67 -13 3.34 -13 3 C-12.37351563 2.86722656 -11.74703125 2.73445313 -11.1015625 2.59765625 C-10.28429688 2.42105469 -9.46703125 2.24445312 -8.625 2.0625 C-7.81289063 1.88847656 -7.00078125 1.71445312 -6.1640625 1.53515625 C-3.88723554 0.9721142 -2.3530537 0 0 0 Z " fill="#37DF91" transform="translate(67,37)"/>
<path d="M0 0 C3.91211733 1.15585285 6.8745041 2.35534962 10 5 C7.36 5 4.72 5 2 5 C2 4.34 2 3.68 2 3 C1.34 2.67 0.68 2.34 0 2 C0 1.34 0 0.68 0 0 Z " fill="#21C579" transform="translate(39,35)"/>
<path d="M0 0 C0.66 0 1.32 0 2 0 C2 0.99 2 1.98 2 3 C4.64 3.33 7.28 3.66 10 4 C10 4.33 10 4.66 10 5 C3.375 5.125 3.375 5.125 0 4 C-0.33 4.99 -0.66 5.98 -1 7 C-1.04254356 5.00045254 -1.04080783 2.99958364 -1 1 C-0.67 0.67 -0.34 0.34 0 0 Z " fill="#40D871" transform="translate(34,23)"/>
<path d="M0 0 C0.99 0 1.98 0 3 0 C2.34 2.31 1.68 4.62 1 7 C1.99 7.33 2.98 7.66 4 8 C2.35 8.33 0.7 8.66 -1 9 C-0.67 6.03 -0.34 3.06 0 0 Z " fill="#33DB8C" transform="translate(60,23)"/>
<path d="M0 0 C3.96 0.33 7.92 0.66 12 1 C10 3 10 3 6.5625 3.3125 C3 3 3 3 0 0 Z " fill="#38E572" transform="translate(37,22)"/>
<path d="M0 0 C0.33 1.32 0.66 2.64 1 4 C2.32 4 3.64 4 5 4 C5 4.99 5 5.98 5 7 C3.02 7 1.04 7 -1 7 C-0.67 4.69 -0.34 2.38 0 0 Z " fill="#20C75C" transform="translate(45,54)"/>
<path d="M0 0 C1.98 0.99 3.96 1.98 6 3 C5.67 3.99 5.34 4.98 5 6 C3.68 6 2.36 6 1 6 C0.67 4.02 0.34 2.04 0 0 Z " fill="#56ED84" transform="translate(57,46)"/>
<path d="M0 0 C0 0.99 0 1.98 0 3 C-2.64 3.33 -5.28 3.66 -8 4 C-4.5 0 -4.5 0 0 0 Z " fill="#128E4D" transform="translate(63,35)"/>
<path d="M0 0 C0.33 0 0.66 0 1 0 C1.23053497 2.84326464 1.35903101 4.46145349 -0.25 6.875 C-2 8 -2 8 -4.1875 7.6875 C-4.785625 7.460625 -5.38375 7.23375 -6 7 C-5 5 -5 5 -3 4.0625 C-0.65391779 3.1108154 -0.65391779 3.1108154 0 0 Z " fill="#3C8D63" transform="translate(75,41)"/>
<path d="M0 0 C2.475 0.495 2.475 0.495 5 1 C5.33 2.65 5.66 4.3 6 6 C3.96166576 4.7260411 1.96147874 3.38938077 0 2 C0 1.34 0 0.68 0 0 Z " fill="#40A371" transform="translate(28,39)"/>
<path d="M0 0 C0.66 0 1.32 0 2 0 C0.63016497 3.16115776 0.0109362 3.9927092 -3 6 C-3.99 5.67 -4.98 5.34 -6 5 C-5.195625 4.731875 -4.39125 4.46375 -3.5625 4.1875 C-2.716875 3.795625 -1.87125 3.40375 -1 3 C-0.67 2.01 -0.34 1.02 0 0 Z " fill="#72F697" transform="translate(52,20)"/>
</svg>
