<svg xmlns="http://www.w3.org/2000/svg" xmlns:xlink="http://www.w3.org/1999/xlink" viewBox="0,0,256,256" width="20px" height="20px" fill-rule="nonzero"><g fill="#ffffff" fill-rule="nonzero" stroke="none" stroke-width="1" stroke-linecap="butt" stroke-linejoin="miter" stroke-miterlimit="10" stroke-dasharray="" stroke-dashoffset="0" font-family="none" font-weight="none" font-size="none" text-anchor="none" style="mix-blend-mode: normal"><g transform="scale(5.12,5.12)"><path d="M14,5c-2.14844,0 -4.05078,1.14063 -5.09375,2.84375c1.10156,-0.39062 2.41406,-0.65625 4,-0.65625c3.22656,0 5.47266,1.57422 7.0625,3.125c-0.33594,-3.02344 -2.83984,-5.3125 -5.96875,-5.3125zM36,5c-3.1875,0 -5.71484,2.38672 -5.96875,5.5c1.61328,-1.61328 3.92969,-3.3125 7.28125,-3.3125c1.46875,0 2.66797,0.24219 3.71875,0.59375c-1.05078,-1.66406 -2.91016,-2.78125 -5.03125,-2.78125zM12.90625,9.1875c-6.03516,0 -7.15625,3.86719 -7.75,5.90625c-0.75391,2.31641 -1.98437,6.94922 -2.96875,10.8125c2.10156,-1.80469 4.83203,-2.90625 7.8125,-2.90625c6.61719,0 12,5.38281 12,12c0,0.5 -0.03516,0.98438 -0.09375,1.46875c0.01953,0.00781 0.03906,0.02344 0.0625,0.03125c0.10156,0.03516 0.20703,0.05859 0.3125,0.09375c0.11328,0.03516 0.22656,0.0625 0.34375,0.09375c0.12891,0.03125 0.26953,0.06641 0.40625,0.09375c0.10938,0.02344 0.19922,0.07422 0.3125,0.09375c0.16406,0.02734 0.32813,0.04297 0.5,0.0625c0.09766,0.01172 0.21484,0.02344 0.3125,0.03125c0.27734,0.02344 0.54688,0.03125 0.84375,0.03125c0.29688,0 0.57031,-0.00781 0.84375,-0.03125c0.09766,-0.00781 0.1875,-0.01953 0.28125,-0.03125c0.17578,-0.01953 0.36719,-0.03516 0.53125,-0.0625c0.10938,-0.01953 0.20703,-0.07031 0.3125,-0.09375c0.13672,-0.02734 0.27734,-0.0625 0.40625,-0.09375c0.11719,-0.03125 0.23438,-0.05859 0.34375,-0.09375c0.10938,-0.03125 0.21094,-0.05469 0.3125,-0.09375c0.01953,-0.00781 0.03906,-0.02734 0.0625,-0.03125c-0.05859,-0.48437 -0.09375,-0.96875 -0.09375,-1.46875c0,-6.61719 5.38281,-12 12,-12c3.08594,0 5.90234,1.17188 8.03125,3.09375c-1.00781,-3.89844 -2.25391,-8.63672 -2.96875,-11c-0.73047,-2.19922 -1.96094,-5.90625 -7.75,-5.90625c-3.62109,0 -5.8125,2.54297 -7.25,4.21875c-0.30859,0.35938 -0.67969,0.83984 -0.9375,1.0625c-1.17187,-0.86328 -2.64062,-1.375 -4.03125,-1.375c-1.46484,0 -2.99219,0.53906 -4.03125,1.375c-0.26172,-0.21875 -0.67969,-0.71484 -1,-1.09375c-1.41797,-1.66406 -3.55859,-4.1875 -7.15625,-4.1875zM10,25c-3.96875,0 -7.38672,2.33203 -9,5.6875c-0.30469,0.63672 -0.55078,1.30469 -0.71875,2c-0.00781,0.03125 -0.02344,0.0625 -0.03125,0.09375c-0.07031,0.30469 -0.11719,0.62109 -0.15625,0.9375c-0.00781,0.0625 -0.02344,0.125 -0.03125,0.1875c-0.04297,0.35938 -0.0625,0.71875 -0.0625,1.09375c0,5.51563 4.48438,10 10,10c0.33984,0 0.66797,-0.03125 1,-0.0625c0.16797,-0.01953 0.33594,-0.03906 0.5,-0.0625c0.16016,-0.02344 0.3125,-0.03125 0.46875,-0.0625c0.22266,-0.04687 0.4375,-0.12891 0.65625,-0.1875c0.08984,-0.02344 0.19141,-0.03516 0.28125,-0.0625c0.25781,-0.07812 0.50391,-0.15234 0.75,-0.25c0.04297,-0.01953 0.10938,-0.04297 0.15625,-0.0625c0.27734,-0.11328 0.54688,-0.23437 0.8125,-0.375c0.01172,-0.00781 0.01953,-0.02344 0.03125,-0.03125c3.04688,-1.60937 5.14844,-4.73047 5.3125,-8.375c0.00781,-0.15234 0.03125,-0.31641 0.03125,-0.46875c0,-5.52344 -4.47656,-10 -10,-10zM40,25c-5.51562,0 -10,4.48438 -10,10c0,0.15234 0.02734,0.31641 0.03125,0.46875c0.07422,1.65234 0.52734,3.17969 1.3125,4.53125c0.00781,0.01172 0.02344,0.02344 0.03125,0.03125c0.14844,0.25781 0.29688,0.50781 0.46875,0.75c0.01563,0.01953 0.04688,0.04297 0.0625,0.0625c0.16406,0.23047 0.34766,0.44141 0.53125,0.65625c0.03125,0.03516 0.05859,0.08984 0.09375,0.125c0.17188,0.19141 0.34766,0.38281 0.53125,0.5625c0.03906,0.03906 0.08594,0.08984 0.125,0.125c0.18359,0.17578 0.36328,0.33984 0.5625,0.5c0.06641,0.05469 0.14844,0.10156 0.21875,0.15625c0.17969,0.13672 0.34375,0.25391 0.53125,0.375c0.09375,0.0625 0.1875,0.12891 0.28125,0.1875c0.17188,0.10547 0.35156,0.21484 0.53125,0.3125c0.12109,0.0625 0.24609,0.09375 0.375,0.15625c0.16016,0.07813 0.33594,0.18359 0.5,0.25c0.15625,0.0625 0.30859,0.09766 0.46875,0.15625c0.14453,0.05078 0.26172,0.11328 0.40625,0.15625c0.16016,0.05078 0.33594,0.08594 0.5,0.125c0.14453,0.03516 0.32031,0.09375 0.46875,0.125c0.10938,0.02344 0.19922,0.01563 0.3125,0.03125c0.11328,0.01953 0.23047,0.04688 0.34375,0.0625c0.09766,0.01563 0.21094,0.01953 0.3125,0.03125c0.33203,0.02734 0.66016,0.0625 1,0.0625c5.51563,0 10,-4.48437 10,-10c0,-0.3125 -0.03516,-0.60156 -0.0625,-0.90625c-0.01172,-0.11328 -0.01562,-0.23047 -0.03125,-0.34375c-0.01953,-0.17969 -0.03125,-0.35547 -0.0625,-0.53125c-0.02344,-0.14062 -0.0625,-0.26953 -0.09375,-0.40625c-0.03125,-0.14844 -0.08594,-0.32422 -0.125,-0.46875c-0.03906,-0.14453 -0.07812,-0.26562 -0.125,-0.40625c-1.30078,-4.01562 -5.0625,-6.9375 -9.5,-6.9375zM25,27c1.10547,0 2,0.89453 2,2c0,1.10547 -0.89453,2 -2,2c-1.10156,0 -2,-0.89453 -2,-2c0,-1.10547 0.89844,-2 2,-2zM5,34c0.55078,0 1,0.44531 1,1c0,2.24219 1.75781,4 4,4c0.55078,0 1,0.44531 1,1c0,0.55469 -0.44922,1 -1,1c-3.36328,0 -6,-2.63672 -6,-6c0,-0.55469 0.44922,-1 1,-1zM36,34c0.55469,0 1,0.44531 1,1c0,2.24219 1.75781,4 4,4c0.55469,0 1,0.44531 1,1c0,0.55469 -0.44531,1 -1,1c-3.36328,0 -6,-2.63672 -6,-6c0,-0.55469 0.44531,-1 1,-1z"></path></g></g></svg>