<svg xmlns="http://www.w3.org/2000/svg" xmlns:xlink="http://www.w3.org/1999/xlink" viewBox="0,0,256,256" width="20px" height="20px" fill-rule="nonzero"><g fill="#ffffff" fill-rule="nonzero" stroke="none" stroke-width="1" stroke-linecap="butt" stroke-linejoin="miter" stroke-miterlimit="10" stroke-dasharray="" stroke-dashoffset="0" font-family="none" font-weight="none" font-size="none" text-anchor="none" style="mix-blend-mode: normal"><g transform="scale(5.12,5.12)"><path d="M45,4h-40c-0.55,0 -1,0.45 -1,1v40c0,0.55 0.45,1 1,1h40c0.55,0 1,-0.45 1,-1v-40c0,-0.55 -0.45,-1 -1,-1zM12.82,10c1.33,0 2.5,0.67 3.18,1.7c0.68,-1.03 1.85,-1.7 3.18,-1.7c2.11,0 3.82,1.7 3.82,3.79c0,4.42 -5.09,6.63 -7,8.21c-1.91,-1.58 -7,-3.79 -7,-8.21c0,-2.09 1.71,-3.79 3.82,-3.79zM24,41h-16v-2h16zM24,35h-16v-2h16zM24,29h-16v-2h16zM42,41h-16v-2h16zM42,35h-16v-2h16zM42,29h-16v-2h16zM42,23h-16v-2h16zM42,17h-16v-2h16zM42,11h-16v-2h16z"></path></g></g></svg>